{"glyphs":{":":{"x_min":0,"x_max":347,"ha":347,"o":"m 79 75 q 79 114 106 140 q 133 167 172 167 q 211 167 238 140 q 264 114 264 75 q 264 36 238 10 q 211 -17 172 -17 q 133 -17 106 10 q 79 36 79 75 z m 79 359 q 79 398 106 425 q 133 451 172 451 q 211 451 238 425 q 264 398 264 359 q 264 320 238 293 q 211 267 172 267 q 133 267 106 294 q 79 320 79 359 z"},"$":{"x_min":0,"x_max":648,"ha":648,"o":"m 364 206 l 364 74 q 402 76 424 93 q 445 110 445 139 q 445 164 424 181 q 403 199 364 206 z m 287 530 q 252 527 234 510 q 216 493 216 464 q 216 437 232 421 q 249 406 287 399 z m 287 -113 l 287 0 l 283 0 q 167 0 106 36 q 45 72 45 141 q 45 180 70 205 q 96 230 135 230 q 171 230 196 209 q 220 188 220 157 q 220 134 207 118 q 194 103 170 97 q 190 84 215 78 q 240 72 272 72 l 287 72 l 287 223 q 158 251 104 293 q 50 335 50 407 q 50 491 113 545 q 177 600 287 609 l 287 681 l 364 681 l 364 610 q 469 606 525 571 q 581 535 581 472 q 581 434 557 409 q 533 385 495 385 q 459 385 436 404 q 412 424 412 453 q 412 470 421 485 q 430 500 447 512 q 431 521 410 526 q 390 531 364 531 l 364 383 q 491 359 548 313 q 606 268 606 191 q 606 104 542 53 q 479 3 364 0 l 364 -113 z"},"?":{"x_min":0,"x_max":597,"ha":597,"o":"m 219 211 q 218 221 217 226 q 217 231 217 235 q 217 256 223 276 q 229 296 243 317 q 248 324 257 338 q 329 452 329 500 q 329 540 304 564 q 278 589 236 589 q 199 589 175 570 q 151 552 144 518 q 155 521 165 522 q 174 524 184 524 q 218 524 237 504 q 256 484 256 449 q 256 406 229 380 q 202 354 158 354 q 107 354 78 388 q 49 422 49 480 q 49 574 118 633 q 188 691 303 691 q 410 691 475 640 q 541 590 541 509 q 541 470 528 437 q 514 404 488 379 q 460 352 412 317 q 397 307 391 302 l 389 300 q 335 260 335 211 z m 183 75 q 183 114 209 141 q 235 167 274 167 q 313 167 340 140 q 366 114 366 75 q 366 36 340 10 q 313 -17 274 -17 q 235 -17 209 9 q 183 36 183 75 z"},"<":{"x_min":0,"x_max":833,"ha":833,"o":"m 704 605 l 704 458 l 313 298 l 704 138 l 704 -8 l 129 230 l 129 367 z"},"'":{"x_min":0,"x_max":185,"ha":185,"o":"m 104 409 l 81 409 l 36 637 q 35 645 34 648 q 34 651 34 655 q 34 682 50 698 q 66 715 92 715 q 118 715 135 698 q 151 682 151 655 q 151 651 151 648 q 150 645 149 637 z"},"=":{"x_min":0,"x_max":833,"ha":833,"o":"m 124 250 l 709 250 l 709 117 l 124 117 z m 124 480 l 709 480 l 709 347 l 124 347 z"},"a":{"x_min":0,"x_max":635,"ha":635,"o":"m 323 219 q 306 209 276 195 q 210 163 210 134 q 210 113 225 100 q 239 87 262 87 q 291 87 307 105 q 324 124 324 155 l 324 158 z m 344 50 q 318 18 274 0 q 229 -17 172 -17 q 97 -17 57 18 q 16 52 16 116 q 16 179 52 210 q 88 241 191 259 q 276 273 299 291 q 321 309 321 345 q 321 381 296 403 q 271 424 228 424 q 214 424 199 420 q 185 416 169 407 q 195 399 208 384 q 221 368 221 343 q 221 312 197 293 q 173 274 134 274 q 87 274 62 296 q 36 318 36 358 q 36 419 100 454 q 163 489 277 489 q 339 489 388 479 q 438 469 463 452 q 494 432 506 404 q 518 375 518 315 l 518 133 q 518 114 522 109 q 526 103 538 103 q 550 103 554 109 q 559 115 559 133 l 559 190 l 625 190 l 625 128 q 625 50 590 17 q 555 -17 475 -17 q 430 -17 398 -1 q 366 16 344 50 z"},"L":{"x_min":0,"x_max":690,"ha":690,"o":"m 420 671 l 420 576 l 382 576 q 349 576 338 568 q 328 561 328 524 l 328 519 l 328 97 l 373 97 q 436 97 461 104 q 487 110 502 127 q 521 147 531 183 q 541 218 544 280 l 648 280 l 648 0 l 16 0 l 16 95 l 50 95 q 85 95 95 104 q 105 114 105 153 l 105 519 q 105 558 95 567 q 85 576 50 576 l 16 576 l 16 671 z"},"3":{"x_min":0,"x_max":648,"ha":648,"o":"m 271 274 l 271 358 q 324 360 350 379 q 375 397 375 435 q 375 479 345 506 q 315 532 265 532 q 235 532 214 524 q 193 515 179 497 q 207 497 225 479 q 242 461 242 432 q 242 393 218 373 q 194 352 150 352 q 107 352 80 378 q 53 403 53 445 q 53 527 129 577 q 205 626 334 626 q 448 626 512 582 q 576 538 576 459 q 576 410 548 377 q 521 344 465 327 q 533 305 566 266 q 599 227 599 168 q 599 82 527 32 q 455 -17 328 -17 q 185 -17 111 25 q 37 67 37 148 q 37 196 69 228 q 101 259 149 259 q 192 259 218 235 q 244 212 244 173 q 244 138 225 120 q 206 103 164 98 q 184 86 208 81 q 232 75 262 75 q 320 75 352 102 q 384 128 384 178 q 384 225 355 249 q 326 274 271 274 z"},";":{"x_min":0,"x_max":347,"ha":347,"o":"m 79 359 q 79 398 106 425 q 133 451 172 451 q 211 451 238 425 q 264 398 264 359 q 264 320 238 293 q 211 267 172 267 q 133 267 106 294 q 79 320 79 359 z m 171 -6 q 170 -6 168 -6 q 158 -8 152 -8 q 116 -8 94 15 q 72 37 72 74 q 72 114 99 141 q 125 167 167 167 q 214 167 244 135 q 273 104 273 53 q 273 -18 219 -71 q 164 -124 80 -132 l 80 -69 q 117 -65 139 -50 q 161 -35 171 -6 z"},"J":{"x_min":0,"x_max":639,"ha":639,"o":"m 315 519 q 315 558 305 567 q 295 576 260 576 l 222 576 l 222 671 l 623 671 l 623 576 l 592 576 q 559 576 548 568 q 538 561 538 524 l 538 519 l 538 225 q 538 151 525 111 q 512 72 481 44 q 446 12 393 -4 q 341 -20 270 -20 q 159 -20 89 33 q 20 86 20 170 q 20 233 57 273 q 94 312 154 312 q 198 312 224 287 q 250 262 250 219 q 250 179 227 155 q 203 130 165 130 q 159 130 152 131 q 145 131 137 133 q 149 108 169 96 q 189 84 217 84 q 272 84 293 114 q 315 144 315 235 z"},"V":{"x_min":0,"x_max":719,"ha":719,"o":"m 88 494 q 74 537 54 556 q 35 576 5 576 l -27 576 l -27 671 l 375 671 l 375 576 l 338 576 q 309 576 299 571 q 289 565 289 551 q 289 540 292 526 q 292 525 292 525 l 398 182 l 509 526 q 512 535 513 541 q 514 547 514 551 q 514 565 504 571 q 494 576 464 576 l 430 576 l 430 671 l 742 671 l 742 576 l 718 576 q 687 576 670 563 q 653 549 641 511 l 472 0 l 243 0 z"},"\"":{"x_min":0,"x_max":356,"ha":356,"o":"m 276 409 l 252 409 l 207 637 q 206 645 205 648 q 205 651 205 655 q 205 682 221 698 q 238 715 264 715 q 291 715 307 698 q 323 682 323 655 q 323 651 323 648 q 322 645 321 637 z m 104 409 l 80 409 l 35 637 q 34 645 33 648 q 33 651 33 655 q 33 682 49 698 q 65 715 92 715 q 118 715 135 698 q 151 682 151 655 q 151 651 151 648 q 150 645 149 637 z"},"7":{"x_min":0,"x_max":648,"ha":648,"o":"m 205 0 q 205 5 204 12 q 204 20 204 33 q 204 108 225 168 q 246 228 291 284 q 314 312 378 370 q 443 427 475 464 q 452 454 430 448 q 408 443 386 443 q 354 443 310 451 q 267 460 255 460 q 216 460 199 437 q 182 414 182 361 q 182 347 182 340 q 183 332 183 326 l 70 326 l 70 609 l 184 609 l 183 547 q 204 584 236 603 q 268 621 311 621 q 361 621 423 596 q 485 572 500 572 q 516 572 525 580 q 533 587 533 602 l 533 609 l 620 609 q 621 605 621 602 q 621 598 621 590 q 621 529 535 393 q 523 374 517 364 q 456 263 434 188 q 412 112 412 23 l 412 0 z"},"S":{"x_min":0,"x_max":704,"ha":704,"o":"m 53 247 l 150 247 q 174 169 229 126 q 285 82 360 82 q 405 82 433 101 q 460 121 460 152 q 460 200 341 233 q 303 243 281 250 q 209 271 171 287 q 132 302 115 315 q 75 345 55 382 q 36 419 36 466 q 36 567 111 629 q 186 691 309 691 q 372 691 426 679 q 480 667 531 641 l 549 675 l 645 675 l 645 442 l 532 442 q 516 513 470 548 q 424 583 347 583 q 302 583 273 562 q 244 542 244 512 q 244 467 355 444 q 383 438 398 435 q 553 399 616 346 q 678 293 678 202 q 678 101 601 40 q 524 -20 394 -20 q 334 -20 279 -7 q 224 7 170 34 l 145 -3 l 53 -3 z"},"}":{"x_min":0,"x_max":500,"ha":500,"o":"m 82 740 q 201 740 244 704 q 288 668 288 571 l 288 485 q 288 401 314 370 q 341 339 413 332 l 413 288 q 341 281 314 250 q 288 219 288 135 l 288 49 q 288 -48 245 -83 q 201 -119 82 -119 l 82 -85 q 131 -83 149 -59 q 167 -34 167 43 l 167 105 q 167 215 190 254 q 213 293 273 310 q 213 326 190 366 q 167 405 167 516 l 167 577 q 167 653 149 678 q 130 704 82 705 z"},"Z":{"x_min":0,"x_max":676,"ha":676,"o":"m 17 0 l 17 95 l 389 576 l 300 576 q 219 576 187 543 q 155 511 149 421 l 34 421 l 34 671 l 649 671 l 649 576 l 279 95 l 370 95 q 457 95 490 132 q 524 169 530 269 l 649 269 l 649 0 z"},"x":{"x_min":0,"x_max":637,"ha":637,"o":"m 531 135 q 554 109 576 99 q 597 88 624 88 l 640 88 l 640 0 l 288 0 l 288 84 l 303 84 q 316 84 321 86 q 326 89 326 95 q 326 98 322 105 q 318 111 311 119 l 269 166 l 217 116 q 213 112 210 106 q 208 101 208 96 q 208 90 214 87 q 220 84 233 84 l 241 84 l 241 0 l 1 0 l 1 88 l 6 88 q 29 88 48 94 q 66 100 78 111 l 204 231 l 108 337 q 83 364 64 374 q 44 384 19 384 l 15 384 l 15 472 l 335 472 l 335 389 l 329 389 q 320 389 315 386 q 309 382 309 377 q 309 374 312 369 q 315 364 324 353 l 355 315 l 397 359 q 401 363 404 368 q 406 372 406 377 q 406 382 400 386 q 394 389 383 389 l 379 389 l 379 472 l 625 472 l 625 384 q 622 384 617 384 q 611 385 609 385 q 582 385 563 378 q 544 371 523 351 l 419 256 z"},")":{"x_min":0,"x_max":431,"ha":431,"o":"m 22 -111 q 95 -98 129 -10 q 164 77 164 248 q 164 417 129 504 q 95 591 22 606 l 22 691 q 190 689 278 576 q 365 463 365 247 q 365 41 278 -72 q 190 -185 22 -197 z"},"&":{"x_min":0,"x_max":873,"ha":873,"o":"m 259 303 q 234 281 223 259 q 211 237 211 211 q 211 161 245 125 q 278 90 326 90 q 343 90 361 96 q 379 102 399 113 q 371 139 338 184 q 305 229 259 303 z m 352 476 q 384 488 400 506 q 416 525 416 550 q 416 572 403 586 q 389 600 368 600 q 344 600 331 586 q 318 573 318 548 q 318 532 326 514 q 335 496 352 476 z m 750 231 l 853 231 l 853 213 q 853 97 805 39 q 756 -20 661 -20 q 611 -20 566 -6 q 520 9 482 36 q 434 7 382 -6 q 330 -20 271 -20 q 158 -20 93 34 q 28 88 28 182 q 28 264 71 318 q 114 372 209 409 q 188 445 178 477 q 168 510 168 540 q 168 607 218 649 q 268 691 349 691 q 429 691 476 651 q 523 611 523 545 q 523 497 497 457 q 470 417 414 382 q 442 332 474 290 q 505 247 538 213 q 567 246 579 268 q 592 289 592 305 q 592 317 580 323 q 568 328 519 331 l 519 418 l 805 418 l 805 331 q 761 327 737 314 q 713 302 697 275 q 694 271 687 256 q 652 190 610 139 q 630 119 647 109 q 664 99 678 99 q 712 99 731 132 q 750 165 750 223 z"},"_":{"x_min":0,"x_max":500,"ha":500,"o":"m 0 -98 l 500 -98 l 500 -236 l 0 -236 z"},"v":{"x_min":0,"x_max":575,"ha":575,"o":"m 402 337 q 403 341 404 345 q 405 349 405 353 q 405 368 393 375 q 381 382 353 384 l 353 472 l 584 472 l 584 384 l 580 384 q 550 384 534 372 q 517 360 507 331 l 394 0 l 176 0 l 69 337 q 60 367 51 375 q 42 384 23 384 l 5 384 l 5 472 l 313 472 l 313 384 l 299 384 q 277 384 268 378 q 259 372 259 357 q 259 353 260 348 q 261 343 263 337 l 332 125 z"},"O":{"x_min":0,"x_max":843,"ha":843,"o":"m 422 589 q 354 589 323 529 q 292 469 292 337 q 292 202 323 142 q 354 82 421 82 q 489 82 520 142 q 551 201 551 334 q 551 468 520 528 q 489 589 422 589 z m 32 335 q 32 501 136 596 q 239 691 422 691 q 604 691 707 596 q 810 501 810 335 q 810 168 707 74 q 603 -20 420 -20 q 239 -20 135 75 q 32 169 32 335 z"},"(":{"x_min":0,"x_max":431,"ha":431,"o":"m 407 605 q 334 592 300 504 q 265 417 265 246 q 265 77 300 -10 q 334 -97 407 -112 l 407 -197 q 239 -195 151 -82 q 64 31 64 247 q 64 453 151 566 q 238 679 407 691 z"},"C":{"x_min":0,"x_max":741,"ha":741,"o":"m 708 260 q 704 125 623 52 q 542 -20 393 -20 q 219 -20 126 72 q 32 164 32 335 q 32 497 129 594 q 226 691 388 691 q 442 691 490 679 q 537 668 579 644 l 596 681 l 705 681 l 705 405 l 585 405 q 567 501 531 545 q 495 589 434 589 q 363 589 331 529 q 299 469 299 337 q 299 200 332 140 q 365 80 440 80 q 508 80 551 129 q 595 177 600 260 z"},"W":{"x_min":0,"x_max":994,"ha":994,"o":"m 309 671 l 309 576 q 286 576 277 570 q 267 564 267 551 q 267 544 268 537 q 269 531 271 525 l 366 185 l 444 502 q 437 545 419 560 q 402 575 361 576 l 361 671 l 692 671 l 692 576 l 670 576 q 640 576 630 571 q 620 565 620 551 q 620 545 621 540 q 622 534 624 525 l 707 185 l 793 526 q 795 533 796 540 q 797 546 797 551 q 797 565 786 571 q 776 576 741 576 l 741 671 l 997 671 l 997 576 q 965 576 949 562 q 932 547 922 511 l 782 0 l 569 0 l 503 273 l 435 0 l 220 0 l 82 493 q 69 537 50 556 q 30 575 -2 576 l -2 671 z"},"A":{"x_min":0,"x_max":706,"ha":706,"o":"m 368 312 l 307 515 l 250 312 z m 343 0 l 343 95 l 373 95 q 411 95 420 99 q 428 104 428 115 q 428 123 427 130 q 426 137 424 144 l 400 216 l 219 216 l 198 152 q 193 137 191 129 q 189 121 189 114 q 189 105 201 100 q 213 95 236 95 l 269 95 l 269 0 l -31 0 l -31 95 l -6 95 q 20 95 37 111 q 54 127 67 164 l 243 671 l 486 671 l 643 166 q 659 116 672 106 q 686 95 715 95 l 750 95 l 750 0 z"},"f":{"x_min":0,"x_max":403,"ha":403,"o":"m 91 381 l 21 381 l 21 472 l 91 472 l 91 499 q 91 600 144 644 q 196 689 313 689 q 394 689 443 657 q 491 626 491 574 q 491 541 467 519 q 443 497 405 497 q 371 497 350 515 q 328 533 328 561 q 328 579 337 593 q 346 607 364 618 q 355 621 349 622 q 343 623 338 623 q 311 623 300 604 q 288 585 288 536 l 288 472 l 375 472 l 375 381 l 288 381 l 288 136 q 288 106 297 97 q 306 88 335 88 l 377 88 l 377 0 l 21 0 l 21 88 l 45 88 q 73 88 82 97 q 91 105 91 135 z"},"Q":{"x_min":0,"x_max":868,"ha":868,"o":"m 722 91 q 738 79 750 73 q 763 67 774 67 q 795 67 805 85 q 815 104 815 144 l 815 150 l 889 150 q 887 41 846 -13 q 806 -68 728 -68 q 684 -68 646 -49 q 609 -30 573 9 q 532 -6 490 -13 q 449 -20 405 -20 q 235 -20 134 77 q 32 173 32 335 q 32 501 136 596 q 239 691 422 691 q 604 691 707 596 q 810 501 810 335 q 810 256 789 197 q 767 138 722 91 z m 297 225 q 308 272 336 296 q 365 320 411 320 q 449 320 485 300 q 521 279 559 237 q 560 252 561 270 q 561 287 561 324 q 561 466 530 527 q 499 589 428 589 q 355 589 321 533 q 287 477 287 357 q 287 335 289 304 q 292 274 297 225 z m 517 97 q 485 140 454 162 q 422 184 394 184 q 371 184 356 169 q 341 154 341 130 q 341 100 362 83 q 384 65 420 65 q 444 65 469 73 q 493 81 517 97 z"},"w":{"x_min":0,"x_max":855,"ha":855,"o":"m 364 0 l 160 0 l 80 312 q 67 359 58 372 q 48 384 29 384 l 6 384 l 6 472 l 287 472 l 287 384 l 278 384 q 261 384 254 378 q 247 372 247 357 q 247 352 248 347 q 249 342 250 337 l 304 120 l 368 337 q 370 342 370 347 q 371 351 371 354 q 371 367 362 374 q 354 381 331 384 l 331 472 l 611 472 l 611 384 l 602 384 q 586 384 580 378 q 573 372 573 357 q 573 352 574 347 q 575 342 576 337 l 629 125 l 690 337 q 691 340 691 344 q 692 348 692 354 q 692 367 683 374 q 674 381 653 384 l 653 472 l 858 472 l 858 384 q 828 384 812 372 q 796 360 787 331 l 685 0 l 489 0 l 431 229 z"},"-":{"x_min":0,"x_max":359,"ha":359,"o":"m 31 155 l 31 314 l 323 314 l 323 155 z"},"E":{"x_min":0,"x_max":779,"ha":779,"o":"m 720 671 l 720 421 l 614 421 q 604 470 592 497 q 581 524 564 541 q 545 560 518 568 q 490 576 429 576 l 409 576 l 323 576 l 323 392 l 349 392 q 395 392 413 414 q 431 436 431 492 l 431 498 l 515 498 l 515 192 l 431 192 q 429 262 413 283 q 396 304 350 304 l 323 304 l 323 95 l 442 95 q 511 95 537 104 q 563 112 577 132 q 593 156 602 190 q 611 225 614 277 l 724 277 l 724 0 l 16 0 l 16 95 l 50 95 q 83 95 94 103 q 104 111 104 148 l 104 153 l 104 519 q 104 558 94 567 q 84 576 49 576 l 16 576 l 16 671 z"},"s":{"x_min":0,"x_max":568,"ha":568,"o":"m 99 -7 l 29 -7 l 29 166 l 117 166 q 133 120 167 97 q 201 74 253 74 q 288 74 303 84 q 319 93 319 114 q 319 141 241 164 q 214 172 199 177 q 86 213 52 245 q 19 276 19 331 q 19 404 79 447 q 140 490 243 490 q 290 490 332 481 q 375 472 415 453 l 429 481 l 503 481 l 503 332 l 425 332 q 404 367 370 386 q 335 405 292 405 q 262 405 245 395 q 228 386 228 369 q 228 339 303 316 q 322 311 333 307 q 342 304 358 299 q 439 274 474 251 q 499 234 512 207 q 526 179 526 144 q 526 69 467 26 q 409 -17 306 -17 q 251 -17 203 -5 q 154 7 117 30 z"},">":{"x_min":0,"x_max":833,"ha":833,"o":"m 129 605 l 704 367 l 704 230 l 129 -8 l 129 138 l 520 298 l 129 458 z"},"l":{"x_min":0,"x_max":355,"ha":355,"o":"m 81 536 q 81 565 72 574 q 62 583 34 583 l 12 583 l 12 671 l 278 671 l 278 135 q 278 105 287 97 q 296 88 324 88 l 340 88 l 340 0 l 12 0 l 12 88 l 34 88 q 62 88 72 97 q 81 106 81 135 z"},"8":{"x_min":0,"x_max":648,"ha":648,"o":"m 146 301 q 102 330 81 364 q 60 398 60 441 q 60 526 132 576 q 205 626 329 626 q 446 626 512 585 q 579 543 579 472 q 579 430 555 401 q 531 373 484 356 q 553 325 585 283 q 617 241 617 180 q 617 87 537 35 q 457 -17 313 -17 q 177 -17 105 28 q 32 73 32 157 q 32 207 60 242 q 87 277 146 301 z m 240 251 q 206 233 189 210 q 172 188 172 162 q 172 119 211 92 q 251 65 316 65 q 370 65 398 82 q 427 99 427 130 q 427 155 406 174 q 386 193 335 213 z m 384 400 q 412 414 425 431 q 439 448 439 469 q 439 499 411 519 q 382 538 337 538 q 292 538 266 523 q 240 508 240 483 q 240 463 259 448 q 278 434 328 418 z"},"\\":{"x_min":0,"x_max":289,"ha":289,"o":"m 247 -93 l -11 691 l 81 691 l 338 -93 z"},"e":{"x_min":0,"x_max":568,"ha":568,"o":"m 541 164 q 524 72 462 27 q 400 -18 291 -18 q 167 -18 94 50 q 22 119 22 236 q 22 352 94 421 q 167 490 289 490 q 410 490 474 422 q 539 353 539 225 l 539 208 l 225 208 l 225 198 q 225 139 250 107 q 275 75 321 75 q 360 75 385 98 q 410 121 418 164 z m 225 296 l 370 296 l 370 303 q 370 350 351 375 q 332 401 297 401 q 263 401 244 374 q 225 346 225 296 z"},"b":{"x_min":0,"x_max":646,"ha":646,"o":"m 70 536 q 70 564 59 573 q 49 583 16 583 l 0 583 l 0 671 l 267 671 l 267 419 q 295 455 332 472 q 370 490 416 490 q 504 490 556 421 q 609 352 609 234 q 609 110 558 47 q 506 -16 406 -16 q 358 -16 320 3 q 281 22 243 65 l 198 0 l 70 0 z m 267 234 q 267 159 283 122 q 300 85 333 85 q 366 85 382 122 q 398 159 398 234 q 398 311 382 347 q 366 384 333 384 q 299 384 283 347 q 267 311 267 234 z"},"%":{"x_min":0,"x_max":965,"ha":965,"o":"m 674 174 q 674 113 689 85 q 704 58 738 58 q 772 58 788 85 q 803 112 803 174 q 803 236 788 263 q 773 291 739 291 q 706 291 690 263 q 674 234 674 174 z m 547 175 q 547 262 600 314 q 652 367 739 367 q 825 367 878 314 q 931 262 931 175 q 931 88 878 36 q 826 -17 739 -17 q 652 -17 599 35 q 547 88 547 175 z m 158 434 q 158 373 174 345 q 189 317 223 317 q 257 317 272 344 q 287 371 287 434 q 287 496 272 523 q 257 551 223 551 q 189 551 174 523 q 158 495 158 434 z m 31 434 q 31 521 83 573 q 136 626 223 626 q 310 626 362 573 q 415 521 415 434 q 415 347 362 294 q 309 241 223 241 q 136 241 83 294 q 31 347 31 434 z m 241 -18 l 624 627 l 719 627 l 337 -18 z"},"m":{"x_min":0,"x_max":977,"ha":977,"o":"m 275 413 q 312 452 354 471 q 396 490 447 490 q 494 490 526 475 q 559 459 580 427 q 615 458 655 474 q 695 490 739 490 q 828 490 865 451 q 903 412 903 315 l 903 135 q 903 106 912 97 q 921 88 950 88 l 962 88 l 962 0 l 664 0 l 664 88 q 690 89 698 97 q 706 106 706 135 l 706 305 q 706 348 694 366 q 682 385 654 385 q 622 385 606 359 q 591 333 591 277 l 591 135 q 591 105 597 97 q 604 88 623 88 l 634 88 l 634 0 l 353 0 l 353 88 l 363 88 q 382 88 388 97 q 395 106 395 135 l 395 305 q 395 348 383 366 q 371 385 342 385 q 310 385 295 358 q 280 332 280 275 l 280 135 q 280 107 288 97 q 297 88 320 88 l 324 88 l 324 0 l 19 0 l 19 88 l 36 88 q 65 88 74 97 q 83 106 83 135 l 83 337 q 83 366 74 375 q 65 384 36 384 l 19 384 l 19 472 l 275 472 z"},"#":{"x_min":0,"x_max":769,"ha":769,"o":"m 345 408 l 307 301 l 424 301 l 462 408 z m 317 718 l 458 718 l 395 539 l 506 539 l 569 718 l 710 718 l 647 539 l 772 539 l 723 407 l 600 407 l 563 303 l 689 303 l 640 171 l 516 171 l 452 -8 l 311 -8 l 375 171 l 264 171 l 200 -8 l 59 -8 l 123 171 l -3 171 l 46 303 l 170 303 l 206 407 l 80 407 l 128 539 l 254 539 z"},",":{"x_min":0,"x_max":324,"ha":324,"o":"m 159 -6 q 158 -6 156 -6 q 146 -8 140 -8 q 104 -8 83 15 q 61 37 61 74 q 61 114 88 141 q 115 167 156 167 q 203 167 233 135 q 262 104 262 53 q 262 -18 208 -71 q 153 -124 69 -132 l 69 -69 q 106 -65 128 -50 q 149 -35 159 -6 z"},"n":{"x_min":0,"x_max":690,"ha":690,"o":"m 616 135 q 616 105 625 97 q 634 88 662 88 l 682 88 l 682 0 l 366 0 l 366 88 l 377 88 q 402 88 411 97 q 419 106 419 135 l 419 305 q 419 346 403 366 q 387 386 354 386 q 320 386 300 360 q 280 334 280 290 l 280 135 q 280 106 289 97 q 297 88 323 88 l 333 88 l 333 0 l 12 0 l 12 88 l 36 88 q 65 88 74 97 q 83 106 83 135 l 83 337 q 83 366 74 375 q 65 384 36 384 l 12 384 l 12 472 l 275 472 l 275 399 q 307 441 351 463 q 396 485 450 485 q 541 485 578 446 q 616 407 616 310 z"},"h":{"x_min":0,"x_max":686,"ha":686,"o":"m 612 135 q 612 106 621 97 q 630 88 659 88 l 671 88 l 671 0 l 363 0 l 363 88 l 374 88 q 399 88 407 97 q 415 105 415 135 l 415 305 q 415 346 399 366 q 383 386 351 386 q 316 386 296 360 q 276 334 276 290 l 276 135 q 276 106 285 97 q 293 88 319 88 l 329 88 l 329 0 l 16 0 l 16 88 l 33 88 q 62 88 71 97 q 80 106 80 135 l 80 536 q 80 565 71 574 q 62 583 33 583 l 16 583 l 16 671 l 276 671 l 276 401 q 309 445 350 465 q 392 485 447 485 q 537 485 574 446 q 612 407 612 310 z"},"z":{"x_min":0,"x_max":517,"ha":517,"o":"m 14 0 l 14 97 l 268 384 l 202 384 q 156 384 139 364 q 123 345 121 282 l 31 282 l 31 472 l 485 472 l 485 375 l 237 88 l 303 88 q 355 88 375 110 q 395 131 395 190 l 395 207 l 485 207 l 485 0 z"},"B":{"x_min":0,"x_max":748,"ha":748,"o":"m 16 0 l 16 95 l 50 95 q 83 95 94 103 q 104 111 104 148 l 104 153 l 104 519 q 104 558 94 567 q 84 576 49 576 l 16 576 l 16 671 l 420 671 q 551 671 613 633 q 674 595 674 513 q 674 458 638 417 q 603 376 535 355 q 623 336 665 294 q 708 252 708 184 q 708 85 639 43 q 571 0 409 0 z m 325 94 l 368 94 q 429 94 456 120 q 482 145 482 203 q 482 256 454 282 q 426 307 367 307 l 325 307 z m 325 395 l 362 395 q 415 395 439 417 q 464 439 464 487 q 464 534 441 554 q 418 574 365 574 l 325 574 z"},"K":{"x_min":0,"x_max":852,"ha":852,"o":"m 383 671 l 383 576 l 377 576 q 345 576 334 568 q 324 560 324 519 l 324 353 l 541 532 q 549 539 553 545 q 557 552 557 559 q 557 568 548 572 q 538 576 518 576 l 462 576 l 462 671 l 836 671 l 836 576 l 802 576 q 784 576 760 563 q 735 551 707 527 l 572 411 l 753 140 q 769 116 786 105 q 802 95 825 95 l 866 95 l 866 0 l 451 0 l 451 95 l 483 95 q 508 95 519 100 q 530 104 530 114 q 530 121 528 127 q 526 133 522 138 l 424 287 l 323 209 l 323 153 q 323 114 333 105 q 343 95 377 95 l 399 95 l 399 0 l 16 0 l 16 95 l 50 95 q 85 95 95 104 q 105 114 105 153 l 105 519 q 105 558 95 567 q 85 576 50 576 l 16 576 l 16 671 z"},"R":{"x_min":0,"x_max":819,"ha":819,"o":"m 105 153 l 105 519 q 105 558 95 567 q 85 576 50 576 l 16 576 l 16 671 l 478 671 q 601 671 661 629 q 721 588 721 504 q 721 447 684 409 q 647 370 579 356 q 647 348 672 314 q 696 281 696 161 q 696 125 702 111 q 708 97 722 97 q 736 97 742 114 q 749 131 749 166 q 749 169 749 177 q 748 185 748 189 l 816 189 q 816 185 816 176 q 817 167 817 162 q 817 68 778 26 q 740 -16 654 -16 q 562 -16 521 22 q 479 60 479 143 l 479 199 q 479 267 461 285 q 443 303 387 303 l 327 303 l 327 153 q 327 114 337 104 q 347 95 382 95 l 420 95 l 420 0 l 16 0 l 16 95 l 50 95 q 85 95 95 104 q 105 114 105 153 z m 325 394 l 384 394 q 446 394 471 414 q 496 434 496 480 q 496 531 473 551 q 450 572 391 572 l 325 572 z"},"T":{"x_min":0,"x_max":745,"ha":745,"o":"m 232 566 q 177 566 147 529 q 118 491 118 420 l 118 417 l 19 417 l 19 671 l 725 671 l 725 417 l 627 417 l 627 420 q 627 491 597 528 q 568 566 512 566 l 483 566 l 483 153 q 483 114 493 105 q 503 95 539 95 l 595 95 l 595 0 l 154 0 l 154 95 l 206 95 q 240 95 250 103 q 261 111 261 153 l 261 566 z"},"P":{"x_min":0,"x_max":751,"ha":751,"o":"m 328 380 l 372 380 q 441 380 470 403 q 499 425 499 479 q 499 530 472 551 q 444 572 376 572 l 328 572 z m 456 671 q 597 671 663 625 q 729 580 729 484 q 729 387 663 342 q 598 297 456 297 l 327 297 l 327 153 q 327 114 337 104 q 347 95 382 95 l 420 95 l 420 0 l 16 0 l 16 95 l 50 95 q 85 95 95 104 q 105 114 105 153 l 105 519 q 105 558 95 567 q 85 576 50 576 l 16 576 l 16 671 z"},"|":{"x_min":0,"x_max":500,"ha":500,"o":"m 182 764 l 319 764 l 319 -236 l 182 -236 z"},"t":{"x_min":0,"x_max":462,"ha":462,"o":"m 72 385 l 6 385 l 6 472 l 10 472 q 69 472 102 515 q 135 558 151 656 l 269 656 l 269 472 l 408 472 l 408 385 l 269 385 l 269 129 q 269 100 278 87 q 286 73 304 73 q 327 73 335 94 q 344 116 344 179 l 344 223 l 430 223 l 430 159 q 430 62 389 21 q 349 -20 254 -20 q 203 -20 164 -5 q 126 10 102 39 q 86 59 79 83 q 72 108 72 168 z"},"M":{"x_min":0,"x_max":1034,"ha":1034,"o":"m 1017 671 l 1017 576 l 984 576 q 949 576 939 568 q 929 559 929 519 l 929 153 q 929 112 939 104 q 950 95 984 95 l 1017 95 l 1017 0 l 649 0 l 649 95 l 674 95 q 708 95 718 103 q 729 111 729 153 l 729 561 l 557 0 l 400 0 l 237 560 l 237 153 q 237 114 247 104 q 257 95 292 95 l 317 95 l 317 0 l 16 0 l 16 95 l 47 95 q 82 95 92 104 q 102 114 102 153 l 102 519 q 102 558 92 567 q 83 576 47 576 l 16 576 l 16 671 l 392 671 l 506 271 l 629 671 z"},"g":{"x_min":0,"x_max":620,"ha":620,"o":"m 149 -105 q 149 -125 183 -133 q 216 -142 291 -142 q 364 -142 395 -133 q 427 -124 427 -104 q 427 -85 398 -78 q 369 -70 292 -70 q 209 -70 179 -78 q 149 -85 149 -105 z m 261 174 q 284 174 294 203 q 304 232 304 300 q 304 364 294 391 q 284 419 262 419 q 236 419 225 391 q 214 362 214 292 q 214 229 225 202 q 236 174 261 174 z m 86 168 q 58 192 43 225 q 29 257 29 298 q 29 388 92 438 q 155 488 270 488 q 307 488 342 479 q 377 471 419 452 q 444 471 469 479 q 495 488 525 488 q 580 488 615 461 q 649 434 649 390 q 649 358 630 338 q 611 318 580 318 q 547 318 525 334 q 504 350 504 374 q 504 389 511 402 q 519 415 534 427 q 526 434 520 436 q 513 439 507 439 q 495 439 481 433 q 467 426 450 413 q 470 391 480 361 q 490 332 490 293 q 490 208 424 156 q 358 104 250 104 q 228 104 204 108 q 181 111 157 119 q 148 115 143 108 q 138 102 138 95 q 138 80 149 74 q 161 69 204 69 q 241 69 302 70 q 362 72 385 72 q 481 72 524 41 q 568 10 568 -57 q 568 -136 496 -176 q 424 -215 278 -215 q 133 -215 65 -188 q -3 -161 -3 -104 q -3 -79 14 -58 q 30 -38 60 -27 q 33 -7 20 16 q 6 39 6 66 q 6 100 27 127 q 47 153 86 168 z"},"j":{"x_min":0,"x_max":354,"ha":354,"o":"m 85 600 q 85 638 111 665 q 137 691 175 691 q 212 691 239 664 q 265 638 265 600 q 265 562 239 536 q 212 510 175 510 q 137 510 111 536 q 85 562 85 600 z m 287 -12 l 287 -31 q 287 -86 280 -112 q 272 -138 256 -158 q 230 -187 185 -201 q 140 -216 73 -216 q -16 -216 -62 -186 q -109 -157 -109 -101 q -109 -63 -85 -41 q -62 -18 -22 -18 q 15 -18 36 -36 q 58 -54 58 -84 q 58 -98 51 -110 q 44 -123 31 -133 q 41 -137 47 -139 q 53 -141 57 -141 q 74 -141 82 -131 q 90 -120 90 -98 l 90 337 q 90 366 81 375 q 72 384 43 384 l 19 384 l 19 472 l 287 472 z"},"i":{"x_min":0,"x_max":366,"ha":366,"o":"m 84 600 q 84 638 110 665 q 136 691 174 691 q 211 691 238 664 q 264 638 264 600 q 264 562 238 536 q 211 510 174 510 q 136 510 110 536 q 84 562 84 600 z m 286 135 q 286 106 295 97 q 304 88 333 88 l 350 88 l 350 0 l 22 0 l 22 88 l 42 88 q 71 88 80 97 q 89 106 89 135 l 89 337 q 89 366 80 375 q 71 384 42 384 l 22 384 l 22 472 l 286 472 z"},"y":{"x_min":0,"x_max":579,"ha":579,"o":"m 401 340 q 402 343 404 348 q 407 356 407 359 q 407 372 395 377 q 382 383 346 384 l 346 472 l 587 472 l 587 384 q 556 384 540 374 q 523 364 510 331 l 359 -40 q 323 -128 269 -172 q 214 -215 139 -215 q 66 -215 22 -179 q -21 -143 -21 -83 q -21 -41 6 -14 q 33 12 76 12 q 114 12 137 -8 q 161 -28 161 -60 q 161 -88 145 -106 q 129 -125 98 -131 q 105 -140 115 -144 q 124 -148 135 -148 q 164 -148 192 -123 q 219 -98 241 -51 l 84 308 l 81 314 q 50 384 16 384 l -2 384 l -2 472 l 306 472 l 306 384 q 277 383 270 379 q 263 375 263 365 q 263 358 268 347 q 269 343 270 341 l 338 175 z"},"@":{"x_min":0,"x_max":986,"ha":986,"o":"m 568 149 q 540 103 505 80 q 471 57 431 57 q 357 57 313 103 q 270 148 270 226 q 270 283 292 333 q 313 383 354 423 q 391 459 436 479 q 480 499 525 499 q 573 499 600 478 q 627 457 632 415 l 654 488 l 768 488 l 682 181 q 679 169 677 159 q 675 148 675 139 q 675 118 684 105 q 693 93 708 93 q 721 93 749 109 q 776 125 799 147 q 843 190 865 248 q 887 305 887 374 q 887 427 874 473 q 860 519 834 552 q 792 607 719 639 q 645 672 562 672 q 491 672 425 648 q 358 625 305 580 q 233 520 196 436 q 159 351 159 247 q 159 87 256 -6 q 354 -98 522 -98 q 601 -98 673 -75 q 745 -51 832 3 l 854 -29 q 781 -84 697 -113 q 614 -141 524 -141 q 312 -141 186 -32 q 61 76 61 260 q 61 348 93 427 q 125 506 187 568 q 257 638 352 677 q 446 715 551 715 q 720 715 823 621 q 927 528 927 375 q 927 298 903 237 q 880 175 831 125 q 799 91 760 74 q 721 56 679 56 q 630 56 599 82 q 569 107 568 149 z m 556 456 q 531 456 510 440 q 489 424 469 389 q 438 336 419 274 q 400 211 400 170 q 400 136 414 119 q 428 101 454 101 q 476 101 496 121 q 516 141 538 186 q 565 241 583 305 q 600 369 600 407 q 600 431 589 444 q 578 456 556 456 z"},".":{"x_min":0,"x_max":324,"ha":324,"o":"m 70 75 q 70 114 96 140 q 123 167 162 167 q 201 167 228 140 q 254 114 254 75 q 254 36 228 10 q 201 -17 162 -17 q 123 -17 96 10 q 70 36 70 75 z"},"p":{"x_min":0,"x_max":646,"ha":646,"o":"m 281 238 q 281 161 297 125 q 313 88 347 88 q 380 88 396 125 q 412 161 412 238 q 412 313 396 351 q 380 388 347 388 q 314 388 297 351 q 281 313 281 238 z m 267 407 q 303 450 341 469 q 378 488 424 488 q 521 488 573 424 q 624 360 624 238 q 624 121 571 52 q 519 -17 430 -17 q 384 -17 346 0 q 309 18 280 53 l 280 -80 q 280 -108 290 -117 q 301 -127 332 -127 l 346 -127 l 346 -215 l 16 -215 l 16 -127 l 39 -127 q 66 -127 75 -118 q 84 -109 84 -80 l 84 337 q 84 366 75 375 q 66 384 39 384 l 16 384 l 16 472 l 267 472 z"},"X":{"x_min":0,"x_max":741,"ha":741,"o":"m 86 533 q 64 560 51 568 q 38 576 22 576 l -1 576 l -1 671 l 375 671 l 375 576 l 358 576 q 344 576 336 571 q 328 565 328 556 q 328 550 333 542 q 337 533 346 521 l 397 451 l 477 543 q 482 548 484 552 q 486 556 486 559 q 486 567 478 572 q 469 576 454 576 l 425 576 l 425 671 l 732 671 l 732 576 l 713 576 q 689 576 672 569 q 654 561 641 546 l 491 371 l 661 134 q 675 115 692 105 q 710 95 729 95 l 756 95 l 756 0 l 374 0 l 374 95 l 395 95 q 410 95 417 100 q 425 105 425 115 q 425 120 421 128 q 417 136 407 150 l 347 232 l 259 128 q 255 124 253 119 q 251 115 251 112 q 251 104 260 100 q 268 95 283 95 l 320 95 l 320 0 l -14 0 l -14 95 l 19 95 q 45 95 65 105 q 85 115 113 149 l 254 317 z"},"*":{"x_min":0,"x_max":514,"ha":514,"o":"m 247 486 q 245 528 221 576 q 198 624 198 638 q 198 662 214 676 q 230 691 257 691 q 282 691 299 675 q 316 660 316 638 q 316 625 293 577 q 271 529 267 486 q 285 496 302 512 q 318 529 336 556 q 338 559 341 564 q 372 611 402 611 q 425 611 442 592 q 460 574 460 550 q 460 521 442 507 q 425 494 382 491 q 340 488 317 483 q 295 478 278 468 q 319 446 394 442 q 400 442 403 442 q 430 440 445 426 q 461 412 461 388 q 461 361 444 342 q 426 323 401 323 q 373 323 343 367 q 338 375 335 379 q 314 410 298 426 q 283 443 268 450 q 270 409 293 360 q 317 312 317 297 q 317 274 300 259 q 284 244 258 244 q 232 244 216 259 q 199 273 199 296 q 199 310 222 359 q 245 408 249 448 q 231 439 214 423 q 197 406 179 378 q 178 376 175 372 q 145 324 113 324 q 88 324 71 343 q 54 361 54 387 q 54 412 70 426 q 85 439 119 442 q 124 442 133 443 q 200 448 236 466 q 214 479 182 486 q 150 492 107 492 q 86 492 70 508 q 54 524 54 546 q 54 573 71 591 q 88 609 113 609 q 145 609 177 560 l 180 556 l 181 555 q 211 509 247 486 z"},"Y":{"x_min":0,"x_max":690,"ha":690,"o":"m 87 513 q 67 545 45 561 q 22 576 -5 576 l -24 576 l -24 671 l 367 671 l 367 576 l 344 576 q 321 576 310 570 q 299 564 299 552 q 299 546 301 541 q 303 535 309 525 l 388 396 l 467 526 q 472 533 474 542 q 477 551 477 559 q 477 567 466 572 q 455 576 436 576 l 411 576 l 411 671 l 712 671 l 712 576 l 691 576 q 668 576 650 562 q 631 549 606 509 l 456 269 l 456 153 q 456 114 466 105 q 477 95 512 95 l 549 95 l 549 0 l 141 0 l 141 95 l 179 95 q 212 95 223 103 q 234 111 234 153 l 234 269 z"},"c":{"x_min":0,"x_max":531,"ha":531,"o":"m 505 164 q 502 75 446 28 q 390 -19 287 -19 q 166 -19 94 50 q 22 120 22 236 q 22 354 95 422 q 167 490 293 490 q 390 490 448 446 q 506 401 506 329 q 506 281 478 254 q 450 228 399 228 q 357 228 333 249 q 309 270 309 306 q 309 336 326 355 q 343 374 372 375 q 364 388 353 393 q 341 399 323 399 q 275 399 256 363 q 236 328 236 236 q 236 149 254 112 q 272 75 314 75 q 346 75 365 99 q 383 122 384 164 z"},"!":{"x_min":0,"x_max":347,"ha":347,"o":"m 83 75 q 83 114 110 140 q 136 167 175 167 q 214 167 240 140 q 267 114 267 75 q 267 36 240 10 q 214 -17 175 -17 q 136 -17 110 10 q 83 36 83 75 z m 119 208 q 111 297 91 415 q 70 532 70 562 q 70 622 98 656 q 125 691 174 691 q 223 691 250 657 q 277 623 277 562 q 277 532 256 415 q 236 297 228 208 z"},"/":{"x_min":0,"x_max":289,"ha":289,"o":"m 42 -93 l -49 -93 l 209 691 l 301 691 z"},"[":{"x_min":0,"x_max":431,"ha":431,"o":"m 414 -183 l 117 -183 l 117 671 l 414 671 l 414 573 l 304 573 l 304 -82 l 414 -82 z"},"6":{"x_min":0,"x_max":648,"ha":648,"o":"m 256 347 q 291 366 325 375 q 359 385 394 385 q 487 385 545 331 q 602 277 602 189 q 602 92 535 38 q 468 -17 350 -17 q 208 -17 130 62 q 52 142 52 286 q 52 443 137 535 q 223 626 370 626 q 464 626 523 587 q 581 547 581 485 q 581 446 555 423 q 529 400 485 400 q 445 400 419 421 q 393 442 393 474 q 393 494 402 508 q 410 522 428 533 q 417 537 407 538 q 396 540 387 540 q 328 540 292 489 q 256 438 256 350 z m 335 67 q 366 67 385 97 q 404 127 404 177 q 404 227 385 257 q 366 287 335 287 q 303 287 285 258 q 266 228 266 177 q 266 126 285 96 q 303 67 335 67 z"},"r":{"x_min":0,"x_max":514,"ha":514,"o":"m 275 426 q 300 458 331 473 q 362 489 397 489 q 451 489 483 457 q 515 426 515 373 q 515 328 490 300 q 464 273 422 273 q 389 273 366 294 q 344 315 344 346 q 344 368 355 384 q 366 400 388 411 q 382 413 376 413 q 371 414 366 414 q 326 414 303 377 q 280 339 280 274 l 280 135 q 280 106 289 97 q 298 88 327 88 l 359 88 l 359 0 l 19 0 l 19 88 l 36 88 q 65 88 74 97 q 83 106 83 135 l 83 337 q 83 366 74 375 q 65 384 36 384 l 19 384 l 19 472 l 275 472 z"},"2":{"x_min":0,"x_max":648,"ha":648,"o":"m 46 -1 q 46 3 45 10 q 45 18 45 21 q 45 90 73 142 q 100 193 164 243 q 190 264 245 297 q 300 331 325 349 q 345 364 356 386 q 367 409 367 434 q 367 473 339 496 q 311 518 262 518 q 231 518 206 508 q 182 498 163 478 l 168 478 q 204 478 223 459 q 243 441 243 407 q 243 363 217 338 q 190 313 144 313 q 98 313 70 342 q 43 371 43 420 q 43 510 118 568 q 194 626 312 626 q 432 626 506 569 q 581 511 581 420 q 581 345 532 299 q 482 252 360 216 q 346 212 319 205 q 199 171 184 126 q 217 144 249 152 q 281 161 313 161 q 346 161 395 149 q 443 137 459 137 q 480 137 490 154 q 501 171 501 205 l 501 214 l 603 214 q 604 208 604 200 q 604 193 604 179 q 604 76 562 29 q 521 -18 431 -18 q 377 -18 299 5 q 222 29 200 29 q 180 29 168 22 q 156 15 151 -1 z"},"{":{"x_min":0,"x_max":500,"ha":500,"o":"m 418 740 l 418 705 q 369 704 351 679 q 333 654 333 577 l 333 516 q 333 405 310 366 q 287 326 227 310 q 287 293 310 254 q 333 215 333 105 l 333 43 q 333 -34 351 -59 q 369 -83 418 -85 l 418 -119 q 299 -119 255 -84 q 212 -48 212 49 l 212 135 q 212 219 186 250 q 159 281 87 288 l 87 332 q 159 339 186 370 q 212 401 212 485 l 212 571 q 212 669 256 705 q 299 740 418 740 z"},"9":{"x_min":0,"x_max":648,"ha":648,"o":"m 390 262 q 355 243 321 234 q 287 224 251 224 q 158 224 100 278 q 43 331 43 418 q 43 513 112 569 q 180 626 296 626 q 435 626 514 544 q 593 461 593 318 q 593 164 507 73 q 421 -18 275 -18 q 181 -18 123 22 q 65 62 65 125 q 65 164 91 186 q 117 209 161 209 q 201 209 227 188 q 253 167 253 135 q 253 115 244 101 q 236 86 218 76 q 229 72 239 71 q 249 69 258 69 q 318 69 354 120 q 390 172 390 259 z m 310 542 q 279 542 260 512 q 241 482 241 432 q 241 382 260 352 q 279 322 310 322 q 342 322 361 352 q 380 381 380 432 q 380 483 361 512 q 342 542 310 542 z"}," ":{"x_min":0,"x_max":324,"ha":324,"o":""},"I":{"x_min":0,"x_max":439,"ha":439,"o":"m 419 671 l 419 576 l 386 576 q 350 576 340 567 q 330 557 330 519 l 330 153 q 330 114 340 105 q 351 95 386 95 l 419 95 l 419 0 l 20 0 l 20 95 l 53 95 q 88 95 99 105 q 109 114 109 153 l 109 519 q 109 557 99 567 q 89 576 53 576 l 20 576 l 20 671 z"},"H":{"x_min":0,"x_max":843,"ha":843,"o":"m 388 671 l 388 576 l 377 576 q 347 576 337 567 q 328 557 328 519 l 328 398 l 514 398 l 514 519 q 514 557 505 567 q 495 576 465 576 l 454 576 l 454 671 l 826 671 l 826 576 l 792 576 q 757 576 747 567 q 737 558 737 519 l 737 153 q 737 114 747 104 q 757 95 792 95 l 826 95 l 826 0 l 454 0 l 454 95 l 465 95 q 495 95 504 105 q 514 115 514 153 l 514 303 l 328 303 l 328 153 q 328 115 338 105 q 347 95 377 95 l 388 95 l 388 0 l 16 0 l 16 95 l 50 95 q 83 95 94 103 q 105 111 105 153 l 105 519 q 105 559 95 567 q 85 576 50 576 l 16 576 l 16 671 z"},"4":{"x_min":0,"x_max":648,"ha":648,"o":"m 521 174 l 521 129 q 521 104 534 96 q 547 88 592 88 l 616 88 l 616 0 l 228 0 l 228 88 l 255 88 q 302 88 317 96 q 332 105 332 146 l 332 150 l 332 174 l 31 174 l 31 281 l 333 609 l 521 609 l 521 259 l 616 259 l 616 174 z m 140 259 l 332 259 l 334 472 z"},"~":{"x_min":0,"x_max":833,"ha":833,"o":"m 747 411 l 747 265 q 697 231 653 216 q 609 200 566 200 q 540 200 511 206 q 483 211 436 228 q 375 249 341 255 q 307 262 274 262 q 233 262 188 244 q 143 225 87 185 l 87 331 q 145 368 193 384 q 240 401 286 401 q 314 401 346 395 q 378 389 422 375 q 433 372 453 364 q 527 338 568 338 q 610 338 653 356 q 697 374 747 411 z"},"D":{"x_min":0,"x_max":809,"ha":809,"o":"m 381 671 q 582 671 679 588 q 777 506 777 336 q 777 166 679 83 q 582 0 381 0 l 16 0 l 16 95 l 50 95 q 83 95 94 103 q 104 111 104 148 l 104 153 l 104 519 q 104 558 94 567 q 84 576 49 576 l 16 576 l 16 671 z m 328 98 l 381 98 q 454 98 485 153 q 517 208 517 336 q 517 464 485 519 q 454 574 381 574 l 328 574 z"},"^":{"x_min":0,"x_max":1000,"ha":1000,"o":"m 429 714 l 570 714 l 797 438 l 733 438 l 499 592 l 266 438 l 201 438 z"},"0":{"x_min":0,"x_max":648,"ha":648,"o":"m 406 304 q 406 423 387 476 q 368 529 325 529 q 281 529 262 476 q 242 423 242 304 q 242 185 261 133 q 281 80 324 80 q 368 80 387 132 q 406 184 406 304 z m 27 304 q 27 449 109 538 q 191 626 325 626 q 458 626 540 537 q 622 449 622 304 q 622 160 540 71 q 458 -17 323 -17 q 191 -17 109 71 q 27 160 27 304 z"},"F":{"x_min":0,"x_max":722,"ha":722,"o":"m 698 671 l 698 396 l 589 396 q 586 445 579 477 q 571 508 557 530 q 540 555 513 566 q 486 576 409 576 l 323 576 l 323 392 l 349 392 q 395 392 413 414 q 431 436 431 492 l 431 498 l 515 498 l 515 192 l 431 192 q 429 262 413 283 q 396 304 350 304 l 323 304 l 323 153 q 323 111 334 103 q 344 95 378 95 l 415 95 l 415 0 l 16 0 l 16 95 l 50 95 q 83 95 94 103 q 104 111 104 148 l 104 153 l 104 519 q 104 558 94 567 q 84 576 49 576 l 16 576 l 16 671 z"},"`":{"x_min":0,"x_max":500,"ha":500,"o":"m 360 538 l 301 538 l 132 622 q 103 636 91 651 q 79 665 79 684 q 79 708 95 724 q 111 740 135 740 q 154 740 172 729 q 190 718 216 691 z"},"k":{"x_min":0,"x_max":674,"ha":674,"o":"m 83 536 q 83 565 74 574 q 65 583 36 583 l 14 583 l 14 671 l 278 671 l 278 270 l 378 349 q 385 354 389 359 q 392 364 392 370 q 392 377 386 381 q 379 384 363 384 l 352 384 l 352 472 l 635 472 l 635 384 q 609 384 589 378 q 568 373 554 361 l 488 309 l 603 125 q 615 106 632 97 q 650 89 679 88 l 679 0 l 372 0 l 372 88 q 373 88 374 88 q 406 89 406 101 q 406 107 402 116 q 398 125 388 142 l 348 205 l 278 153 q 277 148 277 144 q 277 140 277 131 q 277 107 286 97 q 296 88 320 88 l 324 88 l 324 0 l 16 0 l 16 88 l 36 88 q 65 88 74 97 q 83 106 83 135 z"},"u":{"x_min":0,"x_max":690,"ha":690,"o":"m 415 69 q 383 26 338 4 q 294 -18 240 -18 q 150 -18 113 21 q 75 60 75 157 l 75 337 q 75 366 66 375 q 57 384 28 384 l 12 384 l 12 472 l 272 472 l 272 167 q 272 126 288 106 q 304 86 336 86 q 370 86 390 112 q 410 138 410 182 l 410 337 q 410 367 401 375 q 392 384 364 384 l 344 384 l 344 472 l 607 472 l 607 135 q 607 106 616 97 q 625 88 654 88 l 675 88 l 675 0 l 415 0 z"},"]":{"x_min":0,"x_max":431,"ha":431,"o":"m 15 -183 l 15 -82 l 125 -82 l 125 573 l 15 573 l 15 671 l 312 671 l 312 -183 z"},"U":{"x_min":0,"x_max":782,"ha":782,"o":"m 317 223 q 317 146 341 114 q 365 83 423 83 q 491 83 521 114 q 551 145 551 215 l 551 519 q 551 559 541 567 q 531 576 496 576 l 462 576 l 462 671 l 773 671 l 773 576 l 742 576 q 707 576 697 567 q 687 558 687 522 l 687 198 q 687 91 609 35 q 532 -21 382 -21 q 246 -21 171 34 q 96 89 96 190 l 96 519 q 96 557 86 567 q 76 576 40 576 l 6 576 l 6 671 l 410 671 l 410 576 l 373 576 q 337 576 327 567 q 317 557 317 519 z"},"o":{"x_min":0,"x_max":617,"ha":617,"o":"m 307 490 q 440 490 518 422 q 595 354 595 236 q 595 119 518 51 q 441 -17 308 -17 q 174 -17 98 50 q 22 118 22 236 q 22 354 98 422 q 174 490 307 490 z m 382 236 q 382 327 365 362 q 348 397 307 397 q 267 397 250 362 q 234 327 234 236 q 234 145 251 110 q 268 75 309 75 q 349 75 365 110 q 382 144 382 236 z"},"N":{"x_min":0,"x_max":814,"ha":814,"o":"m 348 671 l 595 219 l 595 519 q 595 560 585 568 q 574 576 540 576 l 502 576 l 502 671 l 797 671 l 797 576 l 773 576 q 738 576 728 567 q 718 558 718 519 l 718 0 l 488 0 l 227 481 l 227 153 q 227 114 237 104 q 247 95 282 95 l 312 95 l 312 0 l 16 0 l 16 95 l 49 95 q 84 95 95 105 q 105 114 105 153 l 105 519 q 105 557 95 567 q 85 576 49 576 l 16 576 l 16 671 z"},"+":{"x_min":0,"x_max":833,"ha":833,"o":"m 348 596 l 485 596 l 485 365 l 709 365 l 709 232 l 485 232 l 485 0 l 348 0 l 348 232 l 124 232 l 124 365 l 348 365 z"},"G":{"x_min":0,"x_max":823,"ha":823,"o":"m 418 262 l 418 357 l 789 357 l 789 262 l 765 262 q 730 262 720 254 q 710 246 710 205 l 710 -7 l 588 -7 l 566 34 q 516 6 466 -8 q 417 -22 367 -22 q 211 -22 122 73 q 32 168 32 335 q 32 496 128 594 q 225 692 383 692 q 438 692 482 680 q 526 668 563 644 l 579 681 l 686 681 l 686 405 l 569 405 q 552 501 517 545 q 482 589 422 589 q 354 589 323 530 q 292 470 292 337 q 292 202 323 142 q 354 82 421 82 q 465 82 480 95 q 496 109 496 154 l 496 205 q 496 243 486 253 q 476 262 440 262 z"},"q":{"x_min":0,"x_max":646,"ha":646,"o":"m 379 407 l 379 472 l 629 472 l 629 384 l 607 384 q 580 384 571 375 q 562 366 562 337 l 562 -80 q 562 -109 571 -118 q 580 -127 607 -127 l 629 -127 l 629 -215 l 300 -215 l 300 -127 l 314 -127 q 345 -127 355 -117 q 365 -108 365 -80 l 365 53 q 336 18 299 0 q 262 -17 216 -17 q 127 -17 75 52 q 22 121 22 238 q 22 360 73 424 q 125 488 222 488 q 268 488 305 469 q 343 450 379 407 z m 365 238 q 365 313 349 351 q 332 388 299 388 q 266 388 250 351 q 234 313 234 238 q 234 161 250 125 q 266 88 299 88 q 333 88 349 125 q 365 161 365 238 z"},"d":{"x_min":0,"x_max":646,"ha":646,"o":"m 365 536 q 364 564 353 574 q 342 584 309 584 q 306 584 297 583 q 289 583 284 583 l 284 671 l 562 671 l 562 135 q 563 105 571 96 q 580 88 606 88 l 630 88 l 630 0 l 378 0 l 378 65 q 342 22 306 3 q 269 -16 223 -16 q 124 -16 73 47 q 22 110 22 234 q 22 352 74 421 q 127 490 215 490 q 261 490 298 473 q 334 455 365 419 z m 364 234 q 364 312 348 348 q 332 384 298 384 q 265 384 249 347 q 233 311 233 234 q 233 159 249 122 q 265 85 298 85 q 331 85 347 122 q 364 159 364 234 z"},"1":{"x_min":0,"x_max":648,"ha":648,"o":"m 131 442 l 131 531 q 192 536 228 555 q 263 574 276 609 l 434 609 l 434 129 q 434 104 447 96 q 460 88 505 88 l 528 88 l 528 0 l 131 0 l 131 88 l 158 88 q 206 88 220 96 q 235 104 235 145 l 235 149 l 235 442 z"},"5":{"x_min":0,"x_max":648,"ha":648,"o":"m 84 309 l 102 623 q 188 616 240 613 q 292 610 327 610 q 418 610 510 629 q 531 633 536 633 q 544 633 550 626 q 555 619 555 608 q 555 563 485 523 q 414 483 319 483 q 300 483 272 485 q 244 487 200 491 l 196 412 q 223 428 255 435 q 287 443 326 443 q 448 443 518 381 q 588 320 588 214 q 588 111 507 46 q 425 -18 293 -18 q 177 -18 109 30 q 42 79 42 161 q 42 208 72 236 q 101 264 150 264 q 192 264 219 240 q 246 216 246 179 q 246 144 230 126 q 214 108 176 101 q 194 86 213 78 q 232 71 254 71 q 308 71 341 111 q 375 151 375 216 q 375 274 347 308 q 319 342 272 342 q 250 342 230 334 q 210 326 192 309 z"}}}
